<svg id="visual" viewBox="0 0 960 540" width="960" height="540" xmlns="http://www.w3.org/2000/svg" xmlns:xlink="http://www.w3.org/1999/xlink" version="1.1"><path d="M0 125L32 125C64 125 128 125 192 112.5C256 100 320 75 384 61.5C448 48 512 46 576 55.8C640 65.7 704 87.3 768 93.7C832 100 896 91 928 86.5L960 82L960 0L928 0C896 0 832 0 768 0C704 0 640 0 576 0C512 0 448 0 384 0C320 0 256 0 192 0C128 0 64 0 32 0L0 0Z" fill="#f9dddd"></path><path d="M0 190L32 200.8C64 211.7 128 233.3 192 245C256 256.7 320 258.3 384 266.3C448 274.3 512 288.7 576 281.5C640 274.3 704 245.7 768 238.5C832 231.3 896 245.7 928 252.8L960 260L960 80L928 84.5C896 89 832 98 768 91.7C704 85.3 640 63.7 576 53.8C512 44 448 46 384 59.5C320 73 256 98 192 110.5C128 123 64 123 32 123L0 123Z" fill="#f7d4d4"></path><path d="M0 379L32 385.3C64 391.7 128 404.3 192 398C256 391.7 320 366.3 384 364.5C448 362.7 512 384.3 576 398.8C640 413.3 704 420.7 768 426C832 431.3 896 434.7 928 436.3L960 438L960 258L928 250.8C896 243.7 832 229.3 768 236.5C704 243.7 640 272.3 576 279.5C512 286.7 448 272.3 384 264.3C320 256.3 256 254.7 192 243C128 231.3 64 209.7 32 198.8L0 188Z" fill="#f5cccc"></path><path d="M0 465L32 468.7C64 472.3 128 479.7 192 477C256 474.3 320 461.7 384 453.5C448 445.3 512 441.7 576 446.2C640 450.7 704 463.3 768 473.3C832 483.3 896 490.7 928 494.3L960 498L960 436L928 434.3C896 432.7 832 429.3 768 424C704 418.7 640 411.3 576 396.8C512 382.3 448 360.7 384 362.5C320 364.3 256 389.7 192 396C128 402.3 64 389.7 32 383.3L0 377Z" fill="#f4c0bf"></path><path d="M0 541L32 541C64 541 128 541 192 541C256 541 320 541 384 541C448 541 512 541 576 541C640 541 704 541 768 541C832 541 896 541 928 541L960 541L960 496L928 492.3C896 488.7 832 481.3 768 471.3C704 461.3 640 448.7 576 444.2C512 439.7 448 443.3 384 451.5C320 459.7 256 472.3 192 475C128 477.7 64 470.3 32 466.7L0 463Z" fill="#f2b3b3"></path></svg>