<svg id="visual" viewBox="0 0 960 540" width="960" height="540" xmlns="http://www.w3.org/2000/svg" xmlns:xlink="http://www.w3.org/1999/xlink" version="1.1"><rect x="0" y="0" width="960" height="540" fill="#f5cccc"></rect><defs><linearGradient id="grad1_0" x1="43.8%" y1="0%" x2="100%" y2="100%"><stop offset="14.444444444444446%" stop-color="#efc0c0" stop-opacity="1"></stop><stop offset="85.55555555555554%" stop-color="#efc0c0" stop-opacity="1"></stop></linearGradient></defs><defs><linearGradient id="grad1_1" x1="43.8%" y1="0%" x2="100%" y2="100%"><stop offset="14.444444444444446%" stop-color="#efc0c0" stop-opacity="1"></stop><stop offset="85.55555555555554%" stop-color="#f1c3c3" stop-opacity="1"></stop></linearGradient></defs><defs><linearGradient id="grad1_2" x1="43.8%" y1="0%" x2="100%" y2="100%"><stop offset="14.444444444444446%" stop-color="#f2c6c6" stop-opacity="1"></stop><stop offset="85.55555555555554%" stop-color="#f1c3c3" stop-opacity="1"></stop></linearGradient></defs><defs><linearGradient id="grad1_3" x1="43.8%" y1="0%" x2="100%" y2="100%"><stop offset="14.444444444444446%" stop-color="#f2c6c6" stop-opacity="1"></stop><stop offset="85.55555555555554%" stop-color="#f4c9c9" stop-opacity="1"></stop></linearGradient></defs><defs><linearGradient id="grad1_4" x1="43.8%" y1="0%" x2="100%" y2="100%"><stop offset="14.444444444444446%" stop-color="#f5cccc" stop-opacity="1"></stop><stop offset="85.55555555555554%" stop-color="#f4c9c9" stop-opacity="1"></stop></linearGradient></defs><defs><linearGradient id="grad2_0" x1="0%" y1="0%" x2="56.3%" y2="100%"><stop offset="14.444444444444446%" stop-color="#efc0c0" stop-opacity="1"></stop><stop offset="85.55555555555554%" stop-color="#efc0c0" stop-opacity="1"></stop></linearGradient></defs><defs><linearGradient id="grad2_1" x1="0%" y1="0%" x2="56.3%" y2="100%"><stop offset="14.444444444444446%" stop-color="#f1c3c3" stop-opacity="1"></stop><stop offset="85.55555555555554%" stop-color="#efc0c0" stop-opacity="1"></stop></linearGradient></defs><defs><linearGradient id="grad2_2" x1="0%" y1="0%" x2="56.3%" y2="100%"><stop offset="14.444444444444446%" stop-color="#f1c3c3" stop-opacity="1"></stop><stop offset="85.55555555555554%" stop-color="#f2c6c6" stop-opacity="1"></stop></linearGradient></defs><defs><linearGradient id="grad2_3" x1="0%" y1="0%" x2="56.3%" y2="100%"><stop offset="14.444444444444446%" stop-color="#f4c9c9" stop-opacity="1"></stop><stop offset="85.55555555555554%" stop-color="#f2c6c6" stop-opacity="1"></stop></linearGradient></defs><defs><linearGradient id="grad2_4" x1="0%" y1="0%" x2="56.3%" y2="100%"><stop offset="14.444444444444446%" stop-color="#f4c9c9" stop-opacity="1"></stop><stop offset="85.55555555555554%" stop-color="#f5cccc" stop-opacity="1"></stop></linearGradient></defs><g transform="translate(960, 0)"><path d="M0 540C-73.2 535 -146.4 530.1 -206.6 498.9C-266.9 467.7 -314.1 410.4 -356.4 356.4C-398.6 302.4 -435.9 251.7 -465.6 192.9C-495.4 134 -517.7 67 -540 0L0 0Z" fill="#f4caca"></path><path d="M0 432C-58.6 428 -117.1 424 -165.3 399.1C-213.5 374.2 -251.3 328.3 -285.1 285.1C-318.9 241.9 -348.7 201.4 -372.5 154.3C-396.3 107.2 -414.2 53.6 -432 0L0 0Z" fill="#f3c7c7"></path><path d="M0 324C-43.9 321 -87.9 318 -124 299.3C-160.1 280.6 -188.5 246.2 -213.8 213.8C-239.2 181.4 -261.5 151 -279.4 115.7C-297.2 80.4 -310.6 40.2 -324 0L0 0Z" fill="#f1c4c4"></path><path d="M0 216C-29.3 214 -58.6 212 -82.7 199.6C-106.8 187.1 -125.7 164.2 -142.6 142.6C-159.5 121 -174.3 100.7 -186.3 77.1C-198.2 53.6 -207.1 26.8 -216 0L0 0Z" fill="#f0c1c1"></path><path d="M0 108C-14.6 107 -29.3 106 -41.3 99.8C-53.4 93.5 -62.8 82.1 -71.3 71.3C-79.7 60.5 -87.2 50.3 -93.1 38.6C-99.1 26.8 -103.5 13.4 -108 0L0 0Z" fill="#efc0c0"></path></g><g transform="translate(0, 540)"><path d="M0 -540C57.6 -493.8 115.1 -447.5 173.7 -419.4C232.3 -391.4 291.9 -381.4 350.7 -350.7C409.5 -320 467.5 -268.6 498.9 -206.6C530.3 -144.7 535.2 -72.4 540 0L0 0Z" fill="#f4caca"></path><path d="M0 -432C46.1 -395 92.1 -358 139 -335.6C185.9 -313.1 233.5 -305.1 280.6 -280.6C327.6 -256 374 -214.9 399.1 -165.3C424.2 -115.8 428.1 -57.9 432 0L0 0Z" fill="#f3c7c7"></path><path d="M0 -324C34.5 -296.3 69.1 -268.5 104.2 -251.7C139.4 -234.8 175.2 -228.9 210.4 -210.4C245.7 -192 280.5 -161.1 299.3 -124C318.2 -86.8 321.1 -43.4 324 0L0 0Z" fill="#f1c4c4"></path><path d="M0 -216C23 -197.5 46.1 -179 69.5 -167.8C92.9 -156.5 116.8 -152.6 140.3 -140.3C163.8 -128 187 -107.4 199.6 -82.7C212.1 -57.9 214.1 -28.9 216 0L0 0Z" fill="#f0c1c1"></path><path d="M0 -108C11.5 -98.8 23 -89.5 34.7 -83.9C46.5 -78.3 58.4 -76.3 70.1 -70.1C81.9 -64 93.5 -53.7 99.8 -41.3C106.1 -28.9 107 -14.5 108 0L0 0Z" fill="#efc0c0"></path></g></svg>